<svg width="41" height="30" viewBox="0 0 41 30" fill="none" xmlns="http://www.w3.org/2000/svg">
<path d="M14.543 0.635353V3.70176H13.8789C11.0664 3.75384 8.82682 4.58718 7.16016 6.20176C5.49349 7.81634 4.52995 10.0885 4.26953 13.0182C5.76693 11.2994 7.8112 10.44 10.4023 10.44C12.8763 10.44 14.849 11.3124 16.3203 13.0572C17.8047 14.802 18.5469 17.0546 18.5469 19.815C18.5469 22.7447 17.7461 25.0885 16.1445 26.8463C14.556 28.6041 12.4206 29.483 9.73828 29.483C7.01693 29.483 4.8099 28.4413 3.11719 26.358C1.42448 24.2617 0.578125 21.5663 0.578125 18.2721V16.8854C0.578125 11.651 1.69141 7.65358 3.91797 4.89317C6.15755 2.11973 9.48438 0.700457 13.8984 0.635353H14.543ZM9.79688 13.4479C8.5599 13.4479 7.42057 13.8189 6.37891 14.5611C5.33724 15.3033 4.61458 16.2343 4.21094 17.3541V18.6822C4.21094 21.026 4.73828 22.914 5.79297 24.3463C6.84766 25.7786 8.16276 26.4947 9.73828 26.4947C11.3659 26.4947 12.6419 25.8958 13.5664 24.6979C14.5039 23.4999 14.9727 21.9309 14.9727 19.9908C14.9727 18.0377 14.4974 16.4622 13.5469 15.2643C12.6094 14.0533 11.3594 13.4479 9.79688 13.4479ZM40.6562 16.9635C40.6562 21.1952 39.9336 24.3398 38.4883 26.3971C37.043 28.4544 34.7839 29.483 31.7109 29.483C28.6771 29.483 26.431 28.4804 24.9727 26.4752C23.5143 24.457 22.7591 21.4492 22.707 17.4518V12.6275C22.707 8.44785 23.4297 5.34238 24.875 3.31113C26.3203 1.27988 28.5859 0.264259 31.6719 0.264259C34.7318 0.264259 36.9844 1.24733 38.4297 3.21348C39.875 5.1666 40.6172 8.18744 40.6562 12.276V16.9635ZM37.043 12.0221C37.043 8.96218 36.6133 6.73561 35.7539 5.34238C34.8945 3.93613 33.5339 3.23301 31.6719 3.23301C29.8229 3.23301 28.4753 3.92962 27.6289 5.32285C26.7826 6.71608 26.3464 8.85801 26.3203 11.7486V17.5299C26.3203 20.6028 26.763 22.8749 27.6484 24.3463C28.5469 25.8046 29.901 26.5338 31.7109 26.5338C33.4948 26.5338 34.8164 25.8437 35.6758 24.4635C36.5482 23.0833 37.0039 20.9088 37.043 17.94V12.0221Z" fill="#D3AF9E"/>
</svg>
