<svg width="82" height="83" viewBox="0 0 82 83" fill="none" xmlns="http://www.w3.org/2000/svg">
<circle cx="40" cy="42" r="40" fill="white"/>
<path d="M20 7.5C23.5 5 30 2.5 34.5 2.50001L65.5 73C60.4452 76.7839 57.4081 78.299 51.7432 80.26L20 7.5Z" fill="#691F00"/>
<path d="M0.70931 33.0014C1.46872 28.7657 4.2529 22.1276 7.5 19L79.8128 48.6175C78.8384 54.8597 77.7172 58.0634 75.0149 63.4149L0.70931 33.0014Z" fill="#691F00"/>
<path d="M49.7821 2.5611C53.9936 3.44622 60.4724 6.15796 63.5 9.5L31.5 81C25.289 79.8405 23.2677 78.3625 18 75.5L49.7821 2.5611Z" fill="#691F00"/>
<path d="M73.8554 18.6684C76.3992 22.1404 79.4062 28.4876 79.4183 32.9998L7 64.5C3.15041 59.4883 3.20475 57.4475 1.20151 51.7967L73.8554 18.6684Z" fill="#691F00"/>
<line y1="40" x2="80" y2="40" stroke="#875036" stroke-width="4"/>
<line x1="42" y1="2" x2="42" y2="82" stroke="#875036" stroke-width="4"/>
<circle cx="40.5" cy="42.5" r="32.5" fill="#875036"/>
<circle cx="40.5" cy="42.5" r="27.5" fill="#691F00"/>
<path d="M34.543 27.543V30.6094H33.8789C31.0664 30.6615 28.8268 31.4948 27.1602 33.1094C25.4935 34.724 24.5299 36.9961 24.2695 39.9258C25.7669 38.207 27.8112 37.3477 30.4023 37.3477C32.8763 37.3477 34.849 38.2201 36.3203 39.9648C37.8047 41.7096 38.5469 43.9622 38.5469 46.7227C38.5469 49.6523 37.7461 51.9961 36.1445 53.7539C34.556 55.5117 32.4206 56.3906 29.7383 56.3906C27.0169 56.3906 24.8099 55.349 23.1172 53.2656C21.4245 51.1693 20.5781 48.474 20.5781 45.1797V43.793C20.5781 38.5586 21.6914 34.5612 23.918 31.8008C26.1576 29.0273 29.4844 27.6081 33.8984 27.543H34.543ZM29.7969 40.3555C28.5599 40.3555 27.4206 40.7266 26.3789 41.4688C25.3372 42.2109 24.6146 43.1419 24.2109 44.2617V45.5898C24.2109 47.9336 24.7383 49.8216 25.793 51.2539C26.8477 52.6862 28.1628 53.4023 29.7383 53.4023C31.3659 53.4023 32.6419 52.8034 33.5664 51.6055C34.5039 50.4076 34.9727 48.8385 34.9727 46.8984C34.9727 44.9453 34.4974 43.3698 33.5469 42.1719C32.6094 40.9609 31.3594 40.3555 29.7969 40.3555ZM60.6562 43.8711C60.6562 48.1029 59.9336 51.2474 58.4883 53.3047C57.043 55.362 54.7839 56.3906 51.7109 56.3906C48.6771 56.3906 46.431 55.388 44.9727 53.3828C43.5143 51.3646 42.7591 48.3568 42.707 44.3594V39.5352C42.707 35.3555 43.4297 32.25 44.875 30.2188C46.3203 28.1875 48.5859 27.1719 51.6719 27.1719C54.7318 27.1719 56.9844 28.1549 58.4297 30.1211C59.875 32.0742 60.6172 35.0951 60.6562 39.1836V43.8711ZM57.043 38.9297C57.043 35.8698 56.6133 33.6432 55.7539 32.25C54.8945 30.8438 53.5339 30.1406 51.6719 30.1406C49.8229 30.1406 48.4753 30.8372 47.6289 32.2305C46.7826 33.6237 46.3464 35.7656 46.3203 38.6562V44.4375C46.3203 47.5104 46.763 49.7826 47.6484 51.2539C48.5469 52.7122 49.901 53.4414 51.7109 53.4414C53.4948 53.4414 54.8164 52.7513 55.6758 51.3711C56.5482 49.9909 57.0039 47.8164 57.043 44.8477V38.9297Z" fill="#D3AF9E"/>
<path d="M34.543 27.543H35.043V27.043H34.543V27.543ZM34.543 30.6094V31.1094H35.043V30.6094H34.543ZM33.8789 30.6094V30.1093L33.8696 30.1095L33.8789 30.6094ZM27.1602 33.1094L26.8123 32.7503L27.1602 33.1094ZM24.2695 39.9258L23.7715 39.8815L23.6352 41.4151L24.6465 40.2542L24.2695 39.9258ZM36.3203 39.9648L35.9381 40.2872L35.9395 40.2888L36.3203 39.9648ZM36.1445 53.7539L35.7749 53.4172L35.7736 53.4187L36.1445 53.7539ZM23.1172 53.2656L22.7282 53.5797L22.7291 53.5809L23.1172 53.2656ZM23.918 31.8008L23.529 31.4867L23.5288 31.4869L23.918 31.8008ZM33.8984 27.543L33.8984 27.0429L33.8911 27.043L33.8984 27.543ZM24.2109 44.2617L23.7406 44.0922L23.7109 44.1744V44.2617H24.2109ZM33.5664 51.6055L33.1726 51.2973L33.1706 51.3L33.5664 51.6055ZM33.5469 42.1719L33.1515 42.478L33.1552 42.4827L33.5469 42.1719ZM34.043 27.543V30.6094H35.043V27.543H34.043ZM34.543 30.1094H33.8789V31.1094H34.543V30.1094ZM33.8696 30.1095C30.9589 30.1634 28.5884 31.0296 26.8123 32.7503L27.5081 33.4685C29.0652 31.96 31.1739 31.1596 33.8882 31.1093L33.8696 30.1095ZM26.8123 32.7503C25.0383 34.4688 24.0396 36.8652 23.7715 39.8815L24.7676 39.9701C25.0203 37.127 25.9487 34.9791 27.5081 33.4685L26.8123 32.7503ZM24.6465 40.2542C26.0354 38.66 27.9338 37.8477 30.4023 37.8477V36.8477C27.6886 36.8477 25.4984 37.754 23.8925 39.5973L24.6465 40.2542ZM30.4023 37.8477C32.743 37.8477 34.5704 38.6654 35.9381 40.2872L36.7025 39.6425C35.1275 37.7748 33.0096 36.8477 30.4023 36.8477V37.8477ZM35.9395 40.2888C37.3319 41.9256 38.0469 44.0556 38.0469 46.7227H39.0469C39.0469 43.8689 38.2774 41.4937 36.7011 39.6409L35.9395 40.2888ZM38.0469 46.7227C38.0469 49.558 37.2742 51.7716 35.7749 53.4172L36.5141 54.0907C38.2179 52.2206 39.0469 49.7467 39.0469 46.7227H38.0469ZM35.7736 53.4187C34.2929 55.0572 32.2999 55.8906 29.7383 55.8906V56.8906C32.5413 56.8906 34.8191 55.9663 36.5155 54.0891L35.7736 53.4187ZM29.7383 55.8906C27.1651 55.8906 25.1015 54.9149 23.5052 52.9503L22.7291 53.5809C24.5183 55.783 26.8688 56.8906 29.7383 56.8906V55.8906ZM23.5062 52.9515C21.9002 50.9626 21.0781 48.3859 21.0781 45.1797H20.0781C20.0781 48.562 20.9487 51.376 22.7282 53.5797L23.5062 52.9515ZM21.0781 45.1797V43.793H20.0781V45.1797H21.0781ZM21.0781 43.793C21.0781 38.6204 22.1795 34.7525 24.3071 32.1147L23.5288 31.4869C21.2033 34.3699 20.0781 38.4968 20.0781 43.793H21.0781ZM24.307 32.1149C26.4314 29.4841 29.6016 28.1064 33.9058 28.0429L33.8911 27.043C29.3672 27.1097 25.8837 28.5706 23.529 31.4867L24.307 32.1149ZM33.8984 28.043H34.543V27.043H33.8984V28.043ZM29.7969 39.8555C28.4522 39.8555 27.2121 40.2612 26.0888 41.0615L26.669 41.876C27.6291 41.1919 28.6676 40.8555 29.7969 40.8555V39.8555ZM26.0888 41.0615C24.9707 41.8581 24.1813 42.8694 23.7406 44.0922L24.6813 44.4313C25.0478 43.4144 25.7037 42.5637 26.669 41.876L26.0888 41.0615ZM23.7109 44.2617V45.5898H24.7109V44.2617H23.7109ZM23.7109 45.5898C23.7109 48.0066 24.255 50.0085 25.3903 51.5504L26.1956 50.9574C25.2216 49.6347 24.7109 47.8606 24.7109 45.5898H23.7109ZM25.3903 51.5504C26.5253 53.0917 27.9817 53.9023 29.7383 53.9023V52.9023C28.3439 52.9023 27.17 52.2807 26.1956 50.9574L25.3903 51.5504ZM29.7383 53.9023C31.5073 53.9023 32.9351 53.2419 33.9622 51.9109L33.1706 51.3C32.3487 52.3649 31.2245 52.9023 29.7383 52.9023V53.9023ZM33.9602 51.9136C34.9835 50.606 35.4727 48.9191 35.4727 46.8984H34.4727C34.4727 48.758 34.0243 50.2091 33.1727 51.2973L33.9602 51.9136ZM35.4727 46.8984C35.4727 44.8642 34.9767 43.1694 33.9386 41.8611L33.1552 42.4827C34.0181 43.5702 34.4727 45.0264 34.4727 46.8984H35.4727ZM33.9422 41.8658C32.9078 40.5297 31.5104 39.8555 29.7969 39.8555V40.8555C31.2084 40.8555 32.3109 41.3922 33.1515 42.478L33.9422 41.8658ZM44.9727 53.3828L44.5674 53.6757L44.5683 53.6769L44.9727 53.3828ZM42.707 44.3594H42.207L42.2071 44.3659L42.707 44.3594ZM58.4297 30.1211L58.0268 30.4172L58.0278 30.4185L58.4297 30.1211ZM60.6562 39.1836L61.1563 39.1836L61.1562 39.1788L60.6562 39.1836ZM55.7539 32.25L55.3273 32.5107L55.3284 32.5125L55.7539 32.25ZM46.3203 38.6562L45.8203 38.6517V38.6562H46.3203ZM47.6484 51.2539L47.22 51.5117L47.2227 51.5162L47.6484 51.2539ZM55.6758 51.3711L55.2531 51.1039L55.2513 51.1068L55.6758 51.3711ZM57.043 44.8477L57.543 44.8542V44.8477H57.043ZM60.1562 43.8711C60.1562 48.0632 59.4372 51.0842 58.0792 53.0173L58.8974 53.5921C60.43 51.4106 61.1562 48.1425 61.1562 43.8711H60.1562ZM58.0792 53.0173C56.7487 54.911 54.6619 55.8906 51.7109 55.8906V56.8906C54.9058 56.8906 57.3372 55.813 58.8974 53.5921L58.0792 53.0173ZM51.7109 55.8906C48.7969 55.8906 46.7199 54.9352 45.377 53.0887L44.5683 53.6769C46.1421 55.8409 48.5573 56.8906 51.7109 56.8906V55.8906ZM45.3779 53.09C44.0064 51.1919 43.2585 48.3045 43.207 44.3529L42.2071 44.3659C42.2598 48.409 43.0222 51.5373 44.5674 53.6757L45.3779 53.09ZM43.207 44.3594V39.5352H42.207V44.3594H43.207ZM43.207 39.5352C43.207 35.3959 43.9259 32.4151 45.2824 30.5086L44.4676 29.9289C42.9335 32.0849 42.207 35.315 42.207 39.5352H43.207ZM45.2824 30.5086C46.6114 28.6409 48.7045 27.6719 51.6719 27.6719V26.6719C48.4674 26.6719 46.0293 27.7341 44.4676 29.9289L45.2824 30.5086ZM51.6719 27.6719C54.6176 27.6719 56.6995 28.6116 58.0268 30.4172L58.8326 29.8249C57.2693 27.6983 54.8459 26.6719 51.6719 26.6719V27.6719ZM58.0278 30.4185C59.3804 32.2464 60.1176 35.1403 60.1563 39.1884L61.1562 39.1788C61.1168 35.0498 60.3696 31.902 58.8316 29.8237L58.0278 30.4185ZM60.1562 39.1836V43.8711H61.1562V39.1836H60.1562ZM57.543 38.9297C57.543 35.8454 57.1139 33.5025 56.1795 31.9875L55.3284 32.5125C56.1126 33.784 56.543 35.8942 56.543 38.9297H57.543ZM56.1805 31.9893C55.2171 30.4128 53.6811 29.6406 51.6719 29.6406V30.6406C53.3866 30.6406 54.5719 31.2747 55.3273 32.5107L56.1805 31.9893ZM51.6719 29.6406C49.6762 29.6406 48.1522 30.406 47.2016 31.9709L48.0562 32.4901C48.7983 31.2685 49.9697 30.6406 51.6719 30.6406V29.6406ZM47.2016 31.9709C46.2849 33.4799 45.8466 35.7313 45.8203 38.6517L46.8203 38.6608C46.8461 35.7999 47.2803 33.7674 48.0562 32.4901L47.2016 31.9709ZM45.8203 38.6562V44.4375H46.8203V38.6562H45.8203ZM45.8203 44.4375C45.8203 47.5394 46.2638 49.9226 47.22 51.5117L48.0768 50.9961C47.2623 49.6425 46.8203 47.4814 46.8203 44.4375H45.8203ZM47.2227 51.5162C48.2183 53.1321 49.7394 53.9414 51.7109 53.9414V52.9414C50.0627 52.9414 48.8755 52.2924 48.0741 50.9916L47.2227 51.5162ZM51.7109 53.9414C53.6474 53.9414 55.1394 53.1784 56.1002 51.6354L55.2513 51.1068C54.4934 52.3242 53.3422 52.9414 51.7109 52.9414V53.9414ZM56.0984 51.6382C57.046 50.1391 57.5035 47.8505 57.5429 44.8542L56.543 44.8411C56.5043 47.7823 56.0503 49.8427 55.2531 51.1039L56.0984 51.6382ZM57.543 44.8477V38.9297H56.543V44.8477H57.543Z" fill="#D3AF9E"/>
</svg>
