<svg width="82" height="82" viewBox="0 0 82 82" fill="none" xmlns="http://www.w3.org/2000/svg">
<circle cx="40" cy="41.0924" r="40" fill="white"/>
<path d="M20 6.59239C23.5 4.09239 30 1.59238 34.5 1.5924L65.5 72.0924C60.4452 75.8763 57.4081 77.3914 51.7432 79.3524L20 6.59239Z" fill="#691F00"/>
<path d="M0.70931 32.0937C1.46872 27.8581 4.2529 21.22 7.5 18.0924L79.8128 47.7098C78.8384 53.9521 77.7172 57.1557 75.0149 62.5073L0.70931 32.0937Z" fill="#691F00"/>
<path d="M49.7821 1.65348C53.9936 2.5386 60.4724 5.25035 63.5 8.59238L31.5 80.0924C25.289 78.9329 23.2677 77.4549 18 74.5924L49.7821 1.65348Z" fill="#691F00"/>
<path d="M73.8554 17.7608C76.3992 21.2328 79.4062 27.58 79.4183 32.0922L6.99999 63.5924C3.1504 58.5807 3.20474 56.5399 1.2015 50.8891L73.8554 17.7608Z" fill="#691F00"/>
<line y1="40" x2="80" y2="40" stroke="#875036" stroke-width="4"/>
<line x1="42" y1="1" x2="42" y2="81" stroke="#875036" stroke-width="4"/>
<circle cx="40.5" cy="41.5924" r="32.5" fill="#875036"/>
<circle cx="40.5" cy="41.5924" r="27.5" fill="#691F00"/>
</svg>
