<svg width="82" height="82" viewBox="0 0 82 82" fill="none" xmlns="http://www.w3.org/2000/svg">
<path d="M34.543 26.6354V29.7018H33.8789C31.0664 29.7538 28.8268 30.5872 27.1602 32.2018C25.4935 33.8163 24.5299 36.0885 24.2695 39.0182C25.7669 37.2994 27.8112 36.44 30.4023 36.44C32.8763 36.44 34.849 37.3124 36.3203 39.0572C37.8047 40.802 38.5469 43.0546 38.5469 45.815C38.5469 48.7447 37.7461 51.0885 36.1445 52.8463C34.556 54.6041 32.4206 55.483 29.7383 55.483C27.0169 55.483 24.8099 54.4413 23.1172 52.358C21.4245 50.2617 20.5781 47.5663 20.5781 44.2721V42.8854C20.5781 37.651 21.6914 33.6536 23.918 30.8932C26.1576 28.1197 29.4844 26.7005 33.8984 26.6354H34.543ZM29.7969 39.4479C28.5599 39.4479 27.4206 39.8189 26.3789 40.5611C25.3372 41.3033 24.6146 42.2343 24.2109 43.3541V44.6822C24.2109 47.026 24.7383 48.914 25.793 50.3463C26.8477 51.7786 28.1628 52.4947 29.7383 52.4947C31.3659 52.4947 32.6419 51.8958 33.5664 50.6979C34.5039 49.4999 34.9727 47.9309 34.9727 45.9908C34.9727 44.0377 34.4974 42.4622 33.5469 41.2643C32.6094 40.0533 31.3594 39.4479 29.7969 39.4479ZM60.6562 42.9635C60.6562 47.1952 59.9336 50.3398 58.4883 52.3971C57.043 54.4544 54.7839 55.483 51.7109 55.483C48.6771 55.483 46.431 54.4804 44.9727 52.4752C43.5143 50.457 42.7591 47.4492 42.707 43.4518V38.6275C42.707 34.4479 43.4297 31.3424 44.875 29.3111C46.3203 27.2799 48.5859 26.2643 51.6719 26.2643C54.7318 26.2643 56.9844 27.2473 58.4297 29.2135C59.875 31.1666 60.6172 34.1874 60.6562 38.276V42.9635ZM57.043 38.0221C57.043 34.9622 56.6133 32.7356 55.7539 31.3424C54.8945 29.9361 53.5339 29.233 51.6719 29.233C49.8229 29.233 48.4753 29.9296 47.6289 31.3229C46.7826 32.7161 46.3464 34.858 46.3203 37.7486V43.5299C46.3203 46.6028 46.763 48.8749 47.6484 50.3463C48.5469 51.8046 49.901 52.5338 51.7109 52.5338C53.4948 52.5338 54.8164 51.8437 55.6758 50.4635C56.5482 49.0833 57.0039 46.9088 57.043 43.94V38.0221Z" fill="#D3AF9E"/>
</svg>
